<?xml version="1.0" standalone="no"?><!DOCTYPE svg PUBLIC "-//W3C//DTD SVG 1.1//EN" "http://www.w3.org/Graphics/SVG/1.1/DTD/svg11.dtd"><svg width="200" height="200" viewBox="0 0 200 200" version="1.1" xmlns="http://www.w3.org/2000/svg" xmlns:xlink="http://www.w3.org/1999/xlink"><defs><style type="text/css"><![CDATA[
@font-face { font-family: ifont; src: url("//at.alicdn.com/t/font_1442373896_4754455.eot?#iefix") format("embedded-opentype"), url("//at.alicdn.com/t/font_1442373896_4754455.woff") format("woff"), url("//at.alicdn.com/t/font_1442373896_4754455.ttf") format("truetype"), url("//at.alicdn.com/t/font_1442373896_4754455.svg#ifont") format("svg"); }

]]></style></defs><g class="transform-group"><g transform="scale(0.1953125, 0.1953125)"><path d="M843.294118 758.964706l-180.705882-60.235294c0-6.023529 0-6.023529 0-12.047059L662.588235 656.564706c30.117647-24.094118 54.211765-60.235294 66.258824-96.376471 18.070588-12.047059 36.141176-18.070588 54.211765-30.117647l0 0 48.188235 0C855.341176 530.070588 873.411765 505.976471 873.411765 481.882353L873.411765 355.388235c0-30.117647-18.070588-48.188235-42.164706-48.188235C795.105882 162.635294 668.611765 60.235294 512 60.235294 355.388235 60.235294 228.894118 162.635294 192.752941 307.2 168.658824 307.2 150.588235 331.294118 150.588235 355.388235L150.588235 481.882353c0 24.094118 18.070588 48.188235 42.164706 48.188235l48.188235 0L240.941176 512l0 0 0-120.470588C240.941176 240.941176 361.411765 120.470588 512 120.470588c150.588235 0 271.058824 120.470588 271.058824 271.058824l0 54.211765c-12.047059 12.047059-24.094118 24.094118-36.141176 30.117647 0 0 0 0 0 0L746.917647 391.529412c0-132.517647-102.4-234.917647-234.917647-234.917647S277.082353 259.011765 277.082353 391.529412L277.082353 481.882353c0 72.282353 30.117647 138.541176 84.329412 180.705882l0 30.117647c0 6.023529 0 6.023529 0 12.047059l-186.729412 54.211765c-84.329412 30.117647-144.564706 114.447059-144.564706 204.8L30.117647 1024l957.741176 0 0-60.235294C987.858824 867.388235 933.647059 789.082353 843.294118 758.964706zM337.317647 481.882353 337.317647 391.529412c0-96.376471 78.305882-174.682353 174.682353-174.682353s174.682353 78.305882 174.682353 174.682353l0 84.329412c0 12.047059 0 30.117647-6.023529 42.164706-30.117647 12.047059-54.211765 18.070588-84.329412 18.070588C584.282353 512 566.211765 505.976471 542.117647 505.976471L530.070588 505.976471c-36.141176 0-60.235294 24.094118-60.235294 60.235294 0 36.141176 24.094118 60.235294 60.235294 60.235294l12.047059 0c24.094118 0 42.164706-12.047059 54.211765-30.117647 18.070588 0 36.141176 0 48.188235-6.023529C614.4 626.447059 566.211765 650.541176 512 650.541176 415.623529 650.541176 337.317647 578.258824 337.317647 481.882353zM512 710.776471c30.117647 0 60.235294-6.023529 90.352941-18.070588C596.329412 740.894118 560.188235 783.058824 512 783.058824c-48.188235 0-84.329412-36.141176-90.352941-90.352941C451.764706 704.752941 481.882353 710.776471 512 710.776471zM96.376471 963.764706 96.376471 963.764706c0-72.282353 42.164706-132.517647 102.4-150.588235l180.705882-54.211765C403.576471 807.152941 451.764706 843.294118 512 843.294118c54.211765 0 108.423529-36.141176 132.517647-84.329412l180.705882 60.235294c60.235294 18.070588 102.4 78.305882 102.4 144.564706L96.376471 963.764706z" fill="#a9b7b7"></path></g></g></svg>