<?xml version="1.0" standalone="no"?><!DOCTYPE svg PUBLIC "-//W3C//DTD SVG 1.1//EN" "http://www.w3.org/Graphics/SVG/1.1/DTD/svg11.dtd"><svg width="200" height="200" viewBox="0 0 200 200" version="1.1" xmlns="http://www.w3.org/2000/svg" xmlns:xlink="http://www.w3.org/1999/xlink"><defs><style type="text/css"><![CDATA[
@font-face { font-family: ifont; src: url("//at.alicdn.com/t/font_1442373896_4754455.eot?#iefix") format("embedded-opentype"), url("//at.alicdn.com/t/font_1442373896_4754455.woff") format("woff"), url("//at.alicdn.com/t/font_1442373896_4754455.ttf") format("truetype"), url("//at.alicdn.com/t/font_1442373896_4754455.svg#ifont") format("svg"); }

]]></style></defs><g class="transform-group"><g transform="scale(0.1953125, 0.1953125)"><path d="M222.91 111.838l-96.242 0c-58.561 0-106.09 47.529-106.09 106.09l0 588.146c0 58.562 47.529 106.088 106.09 106.088l96.242 0c58.561 0 106.09-47.526 106.09-106.088L329 217.929C329 159.367 281.47 111.838 222.91 111.838L222.91 111.838zM275.955 806.075c0 29.333-23.711 53.043-53.045 53.043l-96.242 0c-29.28 0-53.045-23.71-53.045-53.043L73.623 217.929c0-29.28 23.766-53.045 53.045-53.045l96.242 0c29.332 0 53.045 23.765 53.045 53.045L275.955 806.075 275.955 806.075zM560.91 95.838l-96.242 0c-58.561 0-106.09 47.529-106.09 106.09l0 588.146c0 58.562 47.529 106.088 106.09 106.088l96.242 0c58.561 0 106.09-47.526 106.09-106.088L667 201.929C667 143.367 619.47 95.838 560.91 95.838L560.91 95.838zM613.955 790.075c0 29.333-23.711 53.043-53.045 53.043l-96.242 0c-29.28 0-53.045-23.71-53.045-53.043L411.623 201.929c0-29.28 23.766-53.045 53.045-53.045l96.242 0c29.332 0 53.045 23.765 53.045 53.045L613.955 790.075 613.955 790.075zM898.91 95.838l-96.241 0c-58.562 0-106.09 47.529-106.09 106.09l0 588.146c0 58.562 47.528 106.088 106.09 106.088l96.241 0c58.561 0 106.09-47.526 106.09-106.088L1005 201.929C1005 143.367 957.47 95.838 898.91 95.838L898.91 95.838zM951.955 790.075c0 29.333-23.711 53.043-53.045 53.043l-96.241 0c-29.28 0-53.045-23.71-53.045-53.043L749.624 201.929c0-29.28 23.766-53.045 53.045-53.045l96.241 0c29.332 0 53.045 23.765 53.045 53.045L951.955 790.075 951.955 790.075z" fill="#a9b7b7"></path></g></g></svg>